<svg width="132" height="193" viewBox="0 0 132 193" fill="none" xmlns="http://www.w3.org/2000/svg">
<path d="M47.5898 174.703L49.7698 187.463L56.0898 188.073L53.8998 173.823L47.5898 174.703Z" fill="#FCC9A7"/>
<path d="M48.9032 186.583C49.0332 186.133 49.5032 185.963 49.8432 186.233C50.4932 186.773 51.6632 187.423 53.3332 187.193C55.0732 186.963 55.6932 185.903 55.9232 185.163C56.0432 184.773 56.4132 184.563 56.7432 184.713L68.5732 189.673C69.2332 189.973 69.7532 190.563 70.0232 191.303C70.2832 192.003 69.8332 192.773 69.1732 192.783L49.7932 192.903C49.0732 192.903 48.4932 192.223 48.5332 191.393L48.7032 187.353C48.7032 187.283 48.7132 187.223 48.7332 187.153L48.9032 186.583Z" fill="#1F252A"/>
<path d="M22.0409 115.993H19.4609V191.223H22.0409V115.993Z" fill="#2A272D"/>
<path d="M16.4531 100.523L34.9331 134.463L46.6231 181.613H57.2331L49.6631 129.213L16.4531 100.523Z" fill="#232322"/>
<path d="M31.7015 114.883H8.60156C5.29156 114.883 2.60156 112.203 2.60156 108.883C2.60156 105.573 5.28156 102.883 8.60156 102.883H31.7015C35.0115 102.883 37.7015 105.573 37.7015 108.883C37.7015 112.203 35.0115 114.883 31.7015 114.883Z" fill="#FFEEE3"/>
<path d="M31.8406 114.883H9.64062V117.103H31.8406V114.883Z" fill="#2A272D"/>
<path d="M31.8406 172.963H9.64062V175.183H31.8406V172.963Z" fill="#2A272D"/>
<path d="M19.5502 39.0534C15.1002 38.5134 10.8803 41.2034 9.18025 45.3434C7.74025 48.8334 6.54024 53.8934 7.82024 59.7634C11.7202 77.7334 9.39024 90.1634 9.39024 90.1634H30.5203L30.4403 65.6934C30.4403 65.6934 31.9003 62.8434 32.6903 59.1134C33.8003 53.8934 33.3802 53.2134 30.3302 48.5934L23.8403 40.6734C23.8503 40.6734 22.4002 39.3934 19.5502 39.0534Z" fill="#FFD686"/>
<path d="M57.9835 56.3933C59.3935 53.5733 62.8135 52.4333 65.6335 53.8433C68.4535 55.2533 69.5935 58.6733 68.1835 61.4933C66.7735 64.3133 63.3535 65.4533 60.5335 64.0433C57.7135 62.6433 56.5735 59.2133 57.9835 56.3933Z" fill="#FCC9A7"/>
<path d="M59.2322 54.7434L48.4922 64.9434L52.5722 69.4834L60.9422 62.3134L59.2322 54.7434Z" fill="#FCC9A7"/>
<path d="M12.3101 54.8833L31.7401 84.4133C32.4901 85.5433 34.0301 85.8133 35.1201 84.9933L58.57 66.5733L53.82 58.4233L35.6801 72.2833L23.0001 48.8333C21.3101 45.3133 16.8201 44.2433 13.7201 46.6033C11.1401 48.5633 10.5301 52.1833 12.3101 54.8833Z" fill="#FFD686"/>
<path d="M20.7711 43.5233C19.5411 43.5133 18.231 43.0032 17.261 42.5032C16.301 42.0132 15.7011 41.0032 15.7111 39.9232L15.9111 20.0833L24.5811 20.1233L24.3811 39.7133C24.3711 41.9633 22.7511 43.5333 20.7711 43.5233Z" fill="#FCC9A7"/>
<path d="M24.4387 34.2133L20.8586 29.1433C20.8586 29.1433 18.6686 34.9333 24.4186 36.7133L24.4387 34.2133Z" fill="#F2C09E"/>
<path d="M32.2495 20.1632C32.2195 26.0732 27.4095 30.8332 21.4995 30.8032C15.5895 30.7732 10.8295 25.9632 10.8595 20.0532C10.8895 14.1432 15.6995 9.38323 21.6095 9.41323C27.5095 9.44323 32.2695 14.2532 32.2495 20.1632Z" fill="#FCC9A7"/>
<path d="M25.1986 34.2733C22.3986 34.2633 20.1286 31.9733 20.1486 29.1733L20.1786 21.8533L32.2386 20.1633L32.2086 27.3333C32.1886 31.1833 29.0586 34.2933 25.1986 34.2733Z" fill="#FCC9A7"/>
<path d="M31.9183 22.5532L34.2383 26.0032C34.5683 26.5632 34.1383 27.2532 33.4483 27.2532L30.7383 27.7532L31.9183 22.5532Z" fill="#FCC9A7"/>
<path d="M20.1926 24.7834L24.7425 24.6234C24.7425 24.6234 25.1325 20.6733 26.0225 19.7233C26.9125 18.7733 27.3625 14.5534 27.3625 14.5534C27.3625 14.5534 25.2125 17.1834 24.5825 19.9034L34.1125 19.6633C34.1125 19.6633 35.5326 8.10335 21.1026 7.54335C6.66256 6.98335 7.06254 20.6433 9.90254 23.3533C12.1625 25.5133 15.8225 30.8134 15.8225 30.8134C15.8225 30.8134 15.6526 24.9434 20.1926 24.7834Z" fill="#4C1827"/>
<path d="M23.4909 23.3833C23.5509 25.0733 22.2309 26.4833 20.5509 26.5433C18.8609 26.6033 17.4509 25.2833 17.3809 23.6033C17.3209 21.9133 18.6408 20.5034 20.3208 20.4334C22.0108 20.3734 23.4209 21.6933 23.4909 23.3833Z" fill="#FCC9A7"/>
<path d="M14.6714 6.0633C15.1314 9.8533 12.4414 13.2933 8.66138 13.7633C4.87138 14.2233 1.43137 11.5333 0.961365 7.74331C0.501365 3.95331 3.19135 0.513309 6.98135 0.0533085C10.7714 -0.416691 14.2114 2.2733 14.6714 6.0633Z" fill="#4C1827"/>
<path d="M16.0508 41.2934C16.0508 41.2934 16.8808 43.8834 28.4608 46.2934L23.0808 38.9734L16.0508 41.2934Z" fill="#FCC9A7"/>
<path d="M20.7505 187.423L5.23047 192.733H36.2505L20.7505 187.423Z" fill="#2A272D"/>
<path d="M21.9197 155.613L13.4297 165.823L19.5297 168.143L28.0497 157.333L21.9197 155.613Z" fill="#FCC9A7"/>
<path d="M13.7212 164.433C14.0212 164.083 14.5212 164.103 14.7212 164.493C15.1012 165.253 15.9012 166.313 17.5312 166.773C19.2212 167.253 21.0712 165.773 21.5712 165.183C21.8312 164.873 22.2612 164.823 22.5012 165.103L32.8912 172.393C33.3712 172.933 33.6112 173.683 33.5712 174.473C33.5312 175.213 32.8112 175.743 32.2012 175.483L11.6412 170.283C10.9812 169.993 10.7212 169.133 11.0912 168.393L13.2312 165.053C13.2612 164.993 13.3012 164.933 13.3412 164.883L13.7212 164.433Z" fill="#1F252A"/>
<path d="M8.78191 90.1633C8.78191 90.1633 2.4219 104.643 25.0219 112.353L40.6419 126.863L16.4619 159.243L27.2719 163.153L56.6319 131.913C58.8019 129.383 58.8919 125.503 56.8419 122.863L30.5319 90.1533H8.78191V90.1633Z" fill="#383635"/>
<path d="M131.761 77.3733H54.5508V81.6733H131.761V77.3733Z" fill="#FFEEE3"/>
<path d="M73.543 192.753V81.6733" stroke="#2A272D" stroke-width="2.2811" stroke-miterlimit="10"/>
<path d="M112.152 192.753V81.6733" stroke="#2A272D" stroke-width="2.2811" stroke-miterlimit="10"/>
<path d="M103.03 75.0334H70.9102V77.1134H103.03V75.0334Z" fill="#2A272D"/>
<path d="M103.029 77.1234L113.429 46.7634L111.249 46.2434L101.059 75.4034L103.029 77.1234Z" fill="#2A272D"/>
<path d="M30.2522 82.1533L14.7422 58.5732" stroke="#EFC375" stroke-width="0.7847" stroke-miterlimit="10" stroke-linecap="round" stroke-linejoin="round"/>
<path d="M31.1895 63.6532L25.2695 54.2932" stroke="#EFC375" stroke-width="0.7847" stroke-miterlimit="10" stroke-linecap="round" stroke-linejoin="round"/>
</svg>
