<svg width="86" height="173" viewBox="0 0 86 173" fill="none" xmlns="http://www.w3.org/2000/svg">
<path d="M43.7455 172.3C40.2911 172.4 36.8366 172.283 33.3822 172.149C23.7399 171.796 14.1143 171.444 4.47198 171.092C2.97948 171.042 1.03429 170.606 0.916885 169.164C0.816284 167.872 2.32558 167.068 3.61678 166.699C8.21148 165.391 13.0578 165.173 17.8538 165.022C24.8969 164.77 31.9567 164.586 38.9998 164.468C43.4101 164.384 47.9211 164.351 52.0463 165.843C54.2934 166.648 57.6305 170.002 54.0754 171.562C53.086 171.998 51.0905 171.763 50.034 171.864C47.9378 172.065 45.8417 172.232 43.7455 172.3Z" fill="url(#paint0_linear_232_5942)"/>
<path d="M43.7533 172.3C40.2989 172.4 36.8444 172.283 33.39 172.149C23.7477 171.797 14.1221 171.445 4.47979 171.092C2.98729 171.042 1.0421 170.606 0.924694 169.164C0.824093 167.873 2.3334 167.068 3.6246 166.699C8.2194 165.391 13.0657 165.173 17.8617 165.022C24.9047 164.77 31.9646 164.586 39.0076 164.469C43.4179 164.385 47.9289 164.351 52.0541 165.844C54.3012 166.649 57.6383 170.002 54.0832 171.562C53.0938 171.998 51.0983 171.763 50.0418 171.864C47.9457 172.065 45.8495 172.233 43.7533 172.3Z" fill="url(#paint1_linear_232_5942)"/>
<path d="M76.7503 44.2C77.0857 43.3447 77.4211 42.5063 77.7397 41.651C77.8738 41.2989 78.0415 40.9132 78.3601 40.6952C78.5614 40.561 78.8297 40.4939 78.9806 40.3095C79.1483 40.1082 79.1315 39.8232 79.1651 39.5549C79.2154 38.817 79.5843 38.1127 80.0706 37.5593C80.6743 36.8718 81.6301 36.3687 82.5021 36.6203C82.9885 36.7712 83.3909 37.1233 83.7263 37.509C84.6822 38.599 85.3194 40.1418 84.8499 41.5337C84.5983 42.2715 84.0785 42.8752 83.5754 43.4789C83.0556 44.1161 82.5692 44.7701 82.0997 45.4409C81.8649 45.7763 81.6469 46.1116 81.4289 46.447C81.2948 46.665 81.0433 47.319 80.8085 47.4364C80.3893 47.6544 79.1986 47.0004 78.8129 46.8159C78.1925 46.4973 77.6223 46.0949 77.1025 45.6086C76.8509 45.3738 76.5994 45.0719 76.5826 44.7198C76.5994 44.5689 76.6832 44.3844 76.7503 44.2Z" fill="#F9E9DE"/>
<path d="M14.968 51.2594C12.8047 56.2231 10.8092 61.2707 9.16579 66.4188C8.3777 68.8839 7.67329 71.4496 7.94159 74.032C8.20999 76.5977 9.70239 79.2137 12.134 80.0857C13.1233 80.4547 14.1966 80.505 15.2698 80.4882C17.3492 80.4714 19.5124 80.1528 21.2396 78.9957C23.9227 77.2182 25.0295 73.8308 25.5661 70.6614C26.5723 64.7587 26.3207 58.7217 26.4549 52.7184C26.5723 47.3187 27.0418 41.919 27.8132 36.5528C28.0312 35.01 27.8132 31.2537 25.499 32.7965C23.9227 33.853 22.4806 36.905 21.4744 38.4981C18.9423 42.573 16.8797 46.8994 14.968 51.2594Z" fill="#65627D"/>
<path d="M17.8662 39.8563C16.3067 42.7574 15.2502 45.9603 13.087 48.4422C12.4497 49.1632 11.6951 49.8843 11.5442 50.8401C11.3262 52.2152 12.8018 53.5735 14.1602 53.2549C15.6862 52.886 16.2899 51.1085 16.7426 49.616C18.2016 44.8703 20.6666 40.4265 23.9366 36.6869C25.949 34.3896 24.7751 33.2325 22.2429 34.792C20.3312 35.9826 18.9227 37.9111 17.8662 39.8563Z" fill="#5B5870"/>
<path d="M9.84816 56.2066C10.8376 54.8818 11.676 53.4564 12.3971 51.964C12.5816 51.5615 13.2523 51.5615 13.4536 51.964C13.8393 52.7521 13.5207 53.272 13.1517 53.8756C12.9505 54.8147 12.5816 55.7035 12.0785 56.5419C11.6089 57.3301 10.804 58.7052 9.68046 58.3027C8.40596 57.85 9.39536 56.827 9.84816 56.2066Z" fill="#5B5870"/>
<path d="M54.0807 110.723C54.6005 113.725 55.1707 116.76 54.9191 119.779C54.7347 121.976 54.131 124.105 53.4937 126.201C50.4585 136.28 46.6854 146.123 42.3589 155.698C42.1074 156.252 41.8224 156.839 41.3025 157.174C40.2293 157.845 38.7368 156.906 38.3511 155.698C37.9654 154.491 38.3344 153.183 38.6865 151.959C41.2019 143.272 42.9794 134.385 44.757 125.514C45.1259 123.636 45.5116 121.724 45.478 119.812C45.4445 117.582 44.8744 115.385 44.2707 113.239C42.2751 105.994 40.028 98.834 37.563 91.7406C36.7916 89.5438 36.0202 87.0117 37.1437 84.9658C38.2673 82.92 40.8497 82.2157 43.1807 81.9809C44.6396 81.83 46.0985 81.7964 47.5574 81.8635C50.2237 81.9977 50.9616 82.9367 51.0287 85.3347C51.1125 88.2023 51.4814 91.0866 51.7833 93.9374C52.3534 99.5551 53.1248 105.156 54.0807 110.723Z" fill="#F9E9DE"/>
<path d="M33.5191 137.068C33.234 144.06 32.9489 151.053 32.3285 158.029C31.1043 158.18 29.8802 158.331 28.6728 158.482C28.2368 143.826 27.7169 129.136 25.8555 114.597C24.8997 107.068 23.5581 99.5717 22.8371 92.0255C22.552 89.1077 22.552 85.7035 24.7823 83.7918C25.7549 82.9534 27.0461 82.5341 28.3374 82.4C30.7018 82.1317 35.1457 83.0875 35.7326 85.9215C36.0345 87.3637 35.4643 89.5604 35.414 91.0529C35.3301 93.1491 35.2463 95.2452 35.1625 97.3581C34.8103 105.81 34.4749 114.278 34.1228 122.73C33.9048 127.509 33.7035 132.288 33.5191 137.068Z" fill="#F9E9DE"/>
<path d="M31.9117 169.332C30.6708 169.382 29.4634 169.08 28.2728 168.745C27.9877 168.661 27.6691 168.56 27.5182 168.292C27.4176 168.124 27.4176 167.923 27.4176 167.722C27.4176 167.47 27.4008 167.202 27.4008 166.95C27.4008 166.883 27.4008 166.799 27.4511 166.732C27.5182 166.649 27.6523 166.665 27.7697 166.699C29.6311 167.168 31.5763 167.303 33.488 167.085C33.924 167.034 34.36 166.967 34.7122 166.699C34.7792 166.649 34.8631 166.581 34.9469 166.615C35.014 166.632 35.0476 166.716 35.0643 166.783C35.165 167.101 35.3662 167.671 35.2153 167.99C35.0811 168.292 34.5612 168.56 34.2929 168.711C33.5551 169.114 32.7166 169.315 31.9117 169.332Z" fill="#F7F7F7"/>
<path d="M33.2169 156.604C33.3679 156.05 33.4852 155.38 33.066 155.011C32.8145 154.793 32.4623 154.759 32.1269 154.759C31.0705 154.742 30.0308 154.877 29.0078 155.145C28.8569 155.195 28.6892 155.246 28.5886 155.363C28.4712 155.497 28.4545 155.698 28.4377 155.883C28.3706 157.124 28.4377 158.365 28.6557 159.589C28.6892 159.756 28.7228 159.941 28.8234 160.092C29.0246 160.394 29.4271 160.478 29.7792 160.528C30.6344 160.645 31.6406 160.914 32.2108 160.176C32.8145 159.371 32.9486 157.56 33.2169 156.604Z" fill="#EBEBEB"/>
<path d="M33.9363 163.261C33.5506 162.825 33.0642 162.49 32.5612 162.205C31.9407 161.836 31.2699 161.517 30.5656 161.501C29.5595 161.484 28.6204 162.138 28.067 162.993C27.5304 163.848 27.3124 164.871 27.2453 165.877C27.2118 166.246 27.2118 166.649 27.3963 166.967C27.6478 167.42 28.2012 167.638 28.7043 167.755C30.683 168.225 32.8127 168.024 34.6741 167.185C35.9653 166.615 34.607 164.016 33.9363 163.261Z" fill="#EBEBEB"/>
<path d="M28.1723 158.599C27.8705 159.069 27.8202 159.639 27.7867 160.192C27.6525 162.238 27.5183 164.284 27.401 166.313C27.401 166.397 27.3842 166.481 27.4345 166.548C27.5015 166.632 27.6357 166.649 27.7531 166.649C29.5306 166.598 31.3082 166.531 33.0857 166.414C33.5552 166.38 34.1422 166.296 34.3099 165.844C34.4273 165.559 34.3099 165.24 34.226 164.938C33.7397 163.412 33.6056 161.802 33.1025 160.276C32.8845 159.622 32.5826 158.968 32.0628 158.516C31.2243 157.845 28.8599 157.56 28.1723 158.599Z" fill="#EBEBEB"/>
<path d="M46.8196 166.682C46.5178 166.984 46.1321 167.219 45.7128 167.253C45.4278 167.269 45.1427 167.185 44.8576 167.118C43.9856 166.867 43.1136 166.632 42.2752 166.313C39.7598 165.358 37.5462 163.765 35.4166 162.121C35.2656 162.004 35.1315 161.903 35.0308 161.735C34.729 161.283 34.9135 160.696 35.0979 160.176C35.1482 160.042 35.2153 159.908 35.3327 159.841C35.4669 159.773 35.6345 159.841 35.7687 159.908C36.4562 160.26 36.9929 160.813 37.5798 161.316C39.961 163.329 43.013 164.351 45.9811 165.324C46.2495 165.408 47.1885 165.509 47.3394 165.693C47.5574 165.928 47.0208 166.481 46.8196 166.682Z" fill="#F7F7F7"/>
<path d="M41.5161 157.795C42.1868 156.856 42.8241 155.883 43.411 154.894C43.4613 154.793 43.5284 154.692 43.4949 154.592C43.4781 154.508 43.3943 154.441 43.3272 154.39C42.6061 153.887 41.8515 153.368 40.9627 153.3C40.6776 153.284 40.3758 153.317 40.141 153.502C39.923 153.669 39.8224 153.954 39.7385 154.206C39.4199 155.078 39.1181 155.967 39.051 156.889C39.0343 157.174 39.051 157.51 39.2523 157.711C39.3361 157.795 39.4367 157.845 39.5373 157.895C39.8559 158.046 40.4093 158.449 40.7615 158.465C41.2143 158.465 41.231 158.18 41.5161 157.795Z" fill="#EBEBEB"/>
<path d="M38.3649 154.591C38.2811 154.491 38.1972 154.373 38.0798 154.323C37.8451 154.222 37.56 154.373 37.4091 154.575C37.2582 154.793 37.2079 155.044 37.1408 155.296C36.8725 156.184 36.2688 156.922 35.7993 157.727C35.3297 158.532 34.9776 159.505 35.2794 160.377C35.5813 161.249 36.4365 161.769 37.2414 162.221C38.432 162.909 39.6058 163.58 40.7965 164.267C41.8194 164.854 42.8423 165.441 43.9659 165.827C44.7205 166.095 45.5254 166.263 46.3135 166.162C47.1017 166.061 47.8899 165.659 48.3091 164.988C48.7451 164.301 48.7786 163.445 48.7115 162.641C48.6445 161.869 48.5103 161.081 48.024 160.477C47.4538 159.756 46.498 159.438 45.5757 159.354C44.6534 159.27 43.7311 159.387 42.792 159.354C42.574 159.337 42.356 159.32 42.1715 159.22C41.9871 159.119 41.8529 158.951 41.7355 158.784C40.6791 157.442 39.1363 156.134 38.3649 154.591Z" fill="#EBEBEB"/>
<path d="M29.3068 162.54C29.9608 162.523 30.531 162.171 31.185 162.205C31.688 162.238 32.2079 162.389 32.6103 162.708C32.7109 162.792 32.5936 162.976 32.4762 162.942C31.4868 162.557 30.38 162.154 29.508 163.026C29.1391 163.412 28.7702 162.557 29.3068 162.54Z" fill="#B2B2B2"/>
<path d="M29.3095 161.4C30.2486 160.913 31.3386 160.762 32.2609 161.366C32.4453 161.483 32.2944 161.769 32.0764 161.668C31.238 161.249 30.2821 161.215 29.4437 161.651C29.2927 161.735 29.1418 161.483 29.3095 161.4Z" fill="#B2B2B2"/>
<path d="M29.025 159.673C30.0311 159.237 31.1212 159.287 32.0267 159.941C32.1609 160.042 32.0435 160.226 31.9093 160.159C31.0541 159.723 30.0647 159.623 29.1591 159.975C28.9747 160.025 28.8573 159.74 29.025 159.673Z" fill="#B2B2B2"/>
<path d="M43.6107 159.304C43.7617 159.186 43.9126 159.438 43.7617 159.555C43.1245 160.042 42.9735 160.914 42.5375 161.534C42.4202 161.702 42.2022 161.584 42.2357 161.4C42.3699 160.511 42.9232 159.84 43.6107 159.304Z" fill="#B2B2B2"/>
<path d="M42.4421 159.052C42.5259 159.035 42.6265 159.153 42.5427 159.22C42.0731 159.605 41.6539 160.209 41.4191 160.779C41.3353 160.997 40.9999 160.913 41.067 160.679C41.3017 159.991 41.6371 159.186 42.4421 159.052Z" fill="#B2B2B2"/>
<path d="M39.3424 158.884C39.9964 158.364 40.8014 158.214 41.5728 158.549C41.7237 158.616 41.6398 158.851 41.4889 158.851C40.8349 158.851 40.2647 159.019 39.7113 159.371C39.4263 159.538 39.0741 159.102 39.3424 158.884Z" fill="#B2B2B2"/>
<path d="M35.1956 81.9139C36.5036 79.7674 38.9854 78.5265 41.4673 78.1408C43.9491 77.7551 46.4981 78.124 48.9799 78.5768C50.2376 78.7948 52.0319 79.1637 52.6021 80.4885C53.0549 81.5282 52.7195 83.1715 52.8201 84.2783C53.189 88.0514 54.2119 91.7071 55.1007 95.3796C55.6205 97.4925 56.1068 99.6054 56.4087 101.752C56.9118 105.19 56.9453 108.694 56.9453 112.166C56.9453 118.773 56.7441 125.531 54.4467 131.735C52.6859 136.481 49.7849 140.673 46.8335 144.798C47.8899 145.402 48.2086 146.023 47.2192 147.247C46.9006 147.633 46.4143 147.968 45.8106 148.018C45.3746 148.052 44.9385 147.951 44.5193 147.834C42.507 147.297 40.5785 146.576 38.7507 145.687C38.5159 145.57 38.2644 145.436 38.1973 145.234C38.147 145.1 38.1973 144.966 38.2308 144.832C38.4488 144.195 38.8178 143.591 39.3041 143.071C39.3712 142.987 39.455 142.904 39.5724 142.87C39.7066 142.82 39.8575 142.836 40.0084 142.836C40.2264 142.853 40.4276 142.887 40.6456 142.92C41.5679 135.928 42.4902 128.918 43.4125 121.925C43.5802 120.684 43.7312 119.443 43.7144 118.202C43.6473 115.637 42.7753 113.188 41.9201 110.774C39.8407 104.972 37.7781 99.1526 35.6987 93.3505C35.028 91.4891 34.3739 89.6109 34.1391 87.6489C33.9379 85.6702 34.1727 83.5908 35.1956 81.9139Z" fill="#736357"/>
<path d="M22.4697 103.378C21.3461 96.1508 20.2058 88.873 20.5076 81.5784C20.5244 81.1424 20.558 80.6896 20.6921 80.2704C20.8766 79.7338 21.2455 79.2642 21.6815 78.8953C22.805 77.9562 24.3478 77.6376 25.8067 77.7382C27.2656 77.8389 28.6743 78.3084 30.0661 78.7779C31.7095 79.3313 33.3361 79.8679 34.9795 80.4213C36.103 80.807 38.1321 81.0418 39.0209 81.8802C40.4798 83.2553 39.2221 86.9781 39.1551 88.7388C38.9035 95.1279 39.8594 101.551 39.1048 107.923C38.5849 112.3 37.2769 116.559 36.7738 120.953C36.5558 122.747 36.4888 124.575 36.3211 126.369C36.2037 127.677 36.0192 128.968 35.8515 130.259C35.382 133.68 34.9292 137.101 34.4597 140.505C34.8286 140.539 34.9627 140.69 34.9963 141.243C35.0298 141.864 34.9963 142.652 34.4261 142.92C34.2417 143.004 34.0404 143.021 33.8392 143.038C32.33 143.138 30.8207 143.256 29.3115 143.356C28.8419 143.39 28.3557 143.423 27.8861 143.407C27.752 143.407 27.6178 143.39 27.5172 143.323C27.3998 143.239 27.3495 143.071 27.316 142.92C27.1818 142.283 27.1986 141.629 27.3663 141.009C27.3998 140.891 27.4333 140.774 27.534 140.69C27.5843 140.64 27.6514 140.623 27.7184 140.606C27.4669 140.103 27.3663 139.483 27.2992 138.896C26.1589 127.006 24.3143 115.184 22.4697 103.378Z" fill="#736357"/>
<path d="M44.0307 33.2491C44.5673 32.1927 45.5903 31.22 46.7641 31.3207C47.938 31.4213 48.7429 32.4778 49.3969 33.4671C53.9581 40.3928 57.9492 47.8887 64.1203 53.4225C64.4221 53.6908 64.7743 53.9759 65.1768 54.0262C65.5624 54.0597 65.9314 53.8753 66.2835 53.7076C71.0292 51.2257 74.8023 47.5198 78.1561 43.3442C78.0052 43.5287 81.0404 46.2285 81.0907 46.5807C81.1914 47.3185 80.1685 48.3582 79.7492 48.8948C78.5083 50.5718 77.0997 52.1145 75.6072 53.5734C72.5888 56.508 69.2181 59.057 65.8475 61.5724C64.6904 62.4444 63.2651 63.3667 61.8732 62.9139C61.2863 62.7127 60.8167 62.2934 60.3472 61.8742C54.8134 56.8267 50.0174 50.9742 46.1101 44.5851C45.0705 42.8747 44.0643 41.0804 43.5612 39.1351C43.0917 37.1899 43.1084 35.0434 44.0307 33.2491Z" fill="#F9E9DE"/>
<path d="M33.0301 30.7005C31.3364 30.3148 29.2235 29.7614 28.1503 31.1198C27.8149 31.539 27.6807 32.0588 27.5298 32.5787C25.9367 38.6156 25.0982 44.8202 24.2765 51.0248C23.2536 58.7387 22.2139 66.4693 21.191 74.1832C20.9059 76.3296 20.6879 78.7611 22.0462 80.4548C22.9015 81.5281 24.2262 82.0814 25.5342 82.4504C27.513 83.0038 29.5756 83.2385 31.6382 83.3559C38.413 83.7416 45.2381 83.0373 51.7781 81.243C52.1303 81.1424 52.4824 81.0418 52.7507 80.8238C53.2202 80.4548 53.3879 79.8176 53.4885 79.2307C53.9581 76.5141 53.6059 73.7304 53.2537 70.997C52.2308 62.9813 51.2079 54.9656 50.185 46.9499C49.8999 44.6693 49.5981 42.3719 48.9441 40.1584C48.441 38.4647 47.7199 36.8381 47.4013 35.0941C47.0995 33.501 47.1498 31.7905 46.6131 30.2477C45.7747 27.8497 45.0033 28.7385 43.1922 29.5938C40.0564 31.0694 36.4174 31.4887 33.0301 30.7005Z" fill="#B4C7BA"/>
<path d="M41.8985 28.0844C40.8085 28.5371 39.7687 28.8222 38.9974 28.839C38.1086 28.8557 37.2701 28.4198 36.482 27.9838C34.8721 27.095 33.1617 26.1224 32.34 24.479C31.8537 23.5231 31.7363 22.4164 31.6357 21.3431C31.4009 18.6433 31.2835 15.9434 31.3171 13.2268C31.3338 11.835 31.4009 10.3593 32.1555 9.20222C33.4468 7.24022 36.1299 6.90482 38.4608 6.77066C40.7749 6.63651 43.2232 6.51912 45.2523 7.60912C47.3988 8.74943 46.8957 10.4264 47.0634 12.5225C47.2646 15.1385 47.3988 17.7713 47.4155 20.4041C47.4323 21.8965 47.382 23.4728 46.6106 24.7473C45.9231 25.9379 43.8605 27.2794 41.8985 28.0844Z" fill="#F9E9DE"/>
<path d="M32.4807 17.8888C32.464 17.7714 32.464 17.654 32.464 17.5366C32.531 17.6372 32.5478 17.7546 32.4807 17.8888Z" fill="#D7C68E"/>
<path d="M48.9805 11.1811C48.9805 11.5164 48.9637 11.8686 48.8296 12.1704C48.4606 12.9418 47.488 12.9586 46.7166 12.9083C43.2118 12.64 39.6736 12.7238 36.1688 13.1263C35.7831 13.1766 35.3806 13.2269 35.0452 13.4449C34.7434 13.6461 34.5254 13.9648 34.3242 14.2834C33.5696 15.5075 32.9994 16.8826 32.6305 18.308C32.4963 18.1067 32.3454 17.9223 32.2112 17.721C31.7752 18.0397 31.8758 18.7775 32.0435 19.3309C32.3454 20.3706 32.6473 21.427 32.9659 22.4667C33.3348 23.7244 33.7037 25.0157 33.7037 26.3405C33.7037 27.6652 33.2845 29.0571 32.3286 29.8452C30.7523 28.3695 29.176 26.877 27.5997 25.4014C26.3588 24.2275 25.0508 22.9698 24.531 21.2426C24.095 19.8004 24.2794 18.2409 24.0446 16.7484C23.8434 15.474 23.3571 14.2666 23.3906 12.9754C23.4241 11.8351 23.8769 10.7618 24.3297 9.72214C25.7718 6.36829 27.4488 2.76291 30.5008 1.23691C31.8256 0.566139 33.3012 0.381677 34.7601 0.213984C38.55 -0.188477 41.1325 0.465505 44.3521 2.52812C47.052 4.27212 48.9637 7.65951 48.9805 11.1811Z" fill="#D7C68E"/>
<path d="M30.1133 35.2953C30.3984 35.9493 30.4654 36.6704 30.5158 37.3747C31.0356 43.8811 31.3207 50.4547 30.3648 56.9108C29.8115 60.6504 28.8053 64.3899 26.8098 67.6096C24.8645 70.7454 22.0641 73.2608 20.2195 76.447C19.6661 77.4196 19.1798 78.5431 19.4648 79.6164C20.035 80.0859 20.8902 80.0691 21.561 79.7673C22.2318 79.4654 22.7516 78.9121 23.2212 78.3419C24.7136 76.5308 25.8204 74.4682 26.9272 72.4056C28.1513 70.1417 29.3587 67.8611 30.3816 65.4967C34.4733 56.0388 35.2447 45.1724 32.5281 35.2282C32.2598 34.222 31.9244 33.1824 31.1698 32.4613C30.5661 31.8911 29.778 31.5893 28.9898 31.3545C28.3358 31.1533 27.6315 30.9856 26.9607 31.1197C26.2899 31.2539 25.6359 31.7402 25.5186 32.411C25.2503 33.9873 26.793 33.4171 27.5979 33.4842C28.6376 33.5681 29.6773 34.3394 30.1133 35.2953Z" fill="#5B5870"/>
<path d="M33.3685 28.9062C33.4523 28.923 33.5362 28.9398 33.6033 28.9901C33.6703 29.0404 33.7039 29.141 33.7374 29.2248C33.9722 29.9459 34.0728 30.7173 34.0225 31.4719C34.0225 31.5893 34.0057 31.7067 33.9386 31.8073C33.8548 31.9415 33.7039 31.9918 33.5697 32.0421C33.1505 32.193 32.7145 32.2768 32.2785 32.3272C31.9934 32.3607 31.6748 32.3439 31.4735 32.1427C31.3226 31.9918 31.2723 31.7905 31.2052 31.5725C31.1046 31.1869 31.0208 30.8179 30.9202 30.4322C30.568 29.0068 32.2282 28.7386 33.3685 28.9062Z" fill="#333333"/>
<path d="M35.0287 34.9767C35.4312 37.0394 35.8504 39.1355 35.7665 41.2317C35.6995 42.9421 35.3138 44.6358 34.643 46.2121C34.576 46.363 34.5088 46.514 34.3915 46.6313C34.1231 46.8997 33.6536 46.8661 33.335 46.6481C33.0164 46.4301 32.8151 46.078 32.6642 45.7426C31.3562 43.026 31.3227 39.8901 31.3059 36.8717C31.3059 35.9326 31.2892 34.9935 31.2892 34.0544C31.2892 33.0147 31.9096 31.6061 33.2009 31.7906C34.4753 31.9918 34.8275 33.9538 35.0287 34.9767Z" fill="#D7C68E"/>
<path d="M27.4163 33.7189C26.4772 33.8363 25.6388 34.3729 24.9345 34.9766C21.9495 37.5926 20.9769 41.7011 19.518 45.3568C18.0087 49.1299 15.879 52.6179 14.1686 56.2903C13.2295 58.3194 12.4078 60.4826 12.5923 62.6962C12.6426 63.3502 12.8438 64.088 13.4307 64.4234C14.0847 64.8091 14.9232 64.524 15.5605 64.1216C17.0194 63.1825 17.9417 61.6397 18.8137 60.1472C19.9037 58.2523 21.0105 56.3742 22.1005 54.4793C22.7377 53.406 23.3582 52.316 23.9954 51.2428C25.1022 49.3311 26.2089 47.4194 27.3324 45.5077C28.3051 43.8476 29.2777 42.1539 29.9317 40.3428C30.8037 37.928 31.6422 33.1823 27.4163 33.7189Z" fill="#F9E9DE"/>
<path d="M26.6654 49.2472C28.292 48.2243 29.9186 47.2014 31.5452 46.1784C31.9477 45.9269 32.3837 45.6586 32.8364 45.5748C34.5134 45.2897 35.6202 47.4697 34.5302 48.6603C33.8091 49.4485 32.7023 50.1192 31.9142 50.9241C30.8409 52.0309 29.7677 53.1377 28.7112 54.2445C25.676 57.3971 22.624 60.5329 19.3708 63.5179C17.9957 64.7755 16.3188 66.1171 14.5748 66.1506C12.6463 66.1841 11.5731 64.4402 11.8749 62.6961C12.1935 60.9522 13.5351 59.2752 14.994 57.8163C18.3646 54.4625 22.5401 51.8297 26.6654 49.2472Z" fill="#F9E9DE"/>
<path d="M29.627 46.4968C29.6941 45.8763 30.0798 45.3062 30.5997 44.9372C31.1027 44.5683 31.7232 44.3839 32.3604 44.2832C32.9976 44.1826 33.6852 44.1994 34.205 44.5851C34.792 45.0043 34.9932 45.7757 35.1106 46.4968C35.2783 47.5197 35.3789 48.5594 35.3789 49.6159C35.3789 49.8842 35.3789 50.1525 35.2447 50.3872C35.1273 50.6052 34.8926 50.7562 34.6746 50.8903C34.0541 51.276 33.3833 51.6114 32.679 51.712C31.958 51.8294 31.1866 51.6952 30.6164 51.2257C29.3755 50.2196 29.4761 47.9389 29.627 46.4968Z" fill="#F9E9DE"/>
<path d="M81.2235 43.6127C80.6366 44.9877 79.7981 46.5641 78.3224 46.7653C77.1318 46.933 76.025 46.1281 74.8512 45.8262C74.5158 45.7424 74.1637 45.692 73.8954 45.474C73.5935 45.2225 73.4761 44.8033 73.4426 44.4008C73.3587 43.3779 73.6438 42.3717 73.9289 41.3824C74.717 38.6993 75.5052 35.9994 76.8132 33.5344C76.9306 33.3164 77.0647 33.0816 77.2659 32.9307C77.4672 32.7797 77.7355 32.7294 77.987 32.7127C79.4795 32.545 80.9552 32.9642 82.3973 33.3834C84.7953 34.071 84.4097 35.3287 83.6886 37.2068C82.8837 39.3701 82.0955 41.5165 81.2235 43.6127Z" fill="#4D4D4D"/>
<path d="M79.7315 33.7525C79.0104 33.6183 78.1887 33.5177 77.585 33.937C77.2329 34.1885 77.0149 34.5742 76.8304 34.9766C76.1764 36.402 75.9584 37.9951 75.4386 39.4708C75.1032 40.4266 74.6672 41.3489 74.466 42.3383C74.4157 42.6066 74.3821 42.9085 74.5163 43.1432C74.6504 43.3612 74.8852 43.4786 75.1032 43.5793C76.1429 44.0656 77.1994 44.5519 78.3397 44.7028C78.7924 44.7699 79.329 44.7531 79.6309 44.4177C79.765 44.2668 79.8489 44.0823 79.916 43.8979C80.7377 41.9191 81.6097 39.9571 82.532 38.0119C82.9512 37.1399 83.3872 36.2176 83.3536 35.2617C83.3369 34.7251 82.1798 34.4232 81.7605 34.2891C81.1233 34.0208 80.419 33.8699 79.7315 33.7525Z" fill="white"/>
<path d="M75.6754 44.6858L76.0276 44.5013C76.1953 44.451 76.3965 44.5349 76.5139 44.669C76.6313 44.8032 76.6816 45.0044 76.6648 45.1721C76.6648 45.2392 76.6481 45.323 76.6145 45.3733C76.5642 45.4572 76.4804 45.4907 76.3965 45.5243C76.145 45.5913 75.8599 45.5075 75.709 45.2895C75.5748 45.1386 75.5581 44.8703 75.6754 44.6858Z" fill="#DDDDDD"/>
<path d="M48.2577 43.311C49.5993 48.2915 50.7396 53.1545 51.3601 58.2859C52.0811 64.2558 53.4059 72.9255 60.2477 74.8372C63.937 75.8601 66.771 71.4498 69.2025 69.2698C72.0197 66.7711 74.2165 64.893 74.3675 60.7342C74.5519 55.7035 74.1159 51.8633 77.5536 47.7548C77.7213 47.5704 77.9896 47.8387 77.8219 48.0231C74.7196 51.7795 74.7196 55.6531 74.7531 60.2479C74.7699 62.5453 74.3842 64.6582 72.8918 66.4693C70.7118 69.1188 67.7604 71.4498 65.2785 73.8478C63.7525 75.3234 62.2265 76.0445 60.08 75.4576C55.0996 74.0993 52.5674 68.4145 51.5445 63.8365C50.7899 60.3821 50.6222 56.8438 50.0521 53.3558C49.4987 50.0019 48.5093 46.7487 47.6037 43.4787C47.5031 43.0762 48.1571 42.8918 48.2577 43.311Z" fill="#DDDDDD"/>
<path d="M33.198 19.4988C33.198 19.4988 33.0973 19.2641 33.0806 19.2641C33.047 19.2305 33.0303 19.1802 32.9967 19.1467C32.9297 19.0461 32.9297 18.8784 32.9967 18.7777C33.0638 18.6771 33.1309 18.5933 33.1812 18.4927C33.2986 18.325 33.4663 18.2914 33.6172 18.3417H33.634C33.852 18.3753 34.0364 18.6268 33.9861 18.8616C33.9861 18.8951 33.9693 18.9119 33.9693 18.9454C34.2041 19.1634 34.0364 19.5659 33.7346 19.6497C33.4327 22.1148 33.2986 24.8985 34.07 27.2127C35.0091 30.0299 37.994 32.4279 40.3249 34.0881C43.1589 36.1004 47.15 37.3748 47.9046 41.1814C47.9214 41.2485 47.804 41.2821 47.7872 41.215C46.9655 37.9282 43.7458 36.7711 41.1634 35.178C39.1175 33.9204 37.2897 32.4111 35.6798 30.6168C32.7284 27.3468 32.8123 23.6744 33.198 19.4988Z" fill="#DDDDDD"/>
<path d="M47.019 24.3782C47.3711 27.0277 48.5617 30.3648 48.2766 33.0143C47.9916 35.5968 47.5891 38.0786 47.7903 40.6779C47.8071 40.8456 47.5556 40.8288 47.5388 40.6779C47.2873 38.3637 47.5723 36.234 47.8406 33.9534C48.1928 30.9517 47.1531 27.8662 46.5829 24.9148C46.5829 24.9316 46.9519 23.9422 47.019 24.3782Z" fill="#DDDDDD"/>
<path d="M77.3219 47.7212C77.3051 47.6709 77.2883 47.6038 77.3219 47.5367C77.3554 47.4361 77.3889 47.3355 77.4225 47.2349C77.4392 47.1678 77.4896 47.1175 77.5399 47.084C77.674 46.7821 77.8585 46.5641 78.3448 46.5976C78.5796 46.6144 78.7808 46.933 78.5628 47.1007C78.5293 47.1343 78.4957 47.1678 78.4622 47.2013C78.3281 47.587 78.1771 47.9727 78.0094 48.3584C77.9926 48.392 77.9256 48.4255 77.892 48.4255C77.3554 48.3752 77.1709 48.2075 77.3219 47.7212Z" fill="#DDDDDD"/>
<path d="M46.8324 40.6279C47.0168 40.2422 47.6373 40.2087 47.9559 40.1248C48.1739 40.0745 48.2074 40.5441 48.2577 40.9465C48.3919 41.6005 48.5428 42.2378 48.6602 42.8918C48.7608 43.3948 49.0291 44.3004 48.962 44.8034C48.8949 45.3233 48.1236 45.5748 47.7882 45.2394C47.6037 45.055 47.5367 44.5351 47.4696 44.2836C47.2516 43.4787 47.0839 42.6738 46.9162 41.8688C46.8491 41.4664 46.6647 40.9801 46.8324 40.6279Z" fill="#DDDDDD"/>
<defs>
<linearGradient id="paint0_linear_232_5942" x1="55.5155" y1="167.451" x2="0.958384" y2="170.095" gradientUnits="userSpaceOnUse">
<stop stop-color="#4D4D4D"/>
<stop offset="1"/>
</linearGradient>
<linearGradient id="paint1_linear_232_5942" x1="55.5233" y1="167.452" x2="0.966192" y2="170.096" gradientUnits="userSpaceOnUse">
<stop/>
<stop offset="1"/>
</linearGradient>
</defs>
</svg>
