<svg width="95" height="167" viewBox="0 0 95 167" fill="none" xmlns="http://www.w3.org/2000/svg">
<g clip-path="url(#clip0_232_6017)">
<path d="M94.1187 161.869H63.1486V110.129H94.1187V161.869Z" fill="#B2B2B2"/>
<path d="M63.2708 161.869H32.3008V110.129H63.2708V161.869Z" fill="#D1D1D1"/>
<path d="M60.4866 61.2034L56.7566 79.0634L68.4066 80.5634C68.4066 80.5634 69.4166 62.0034 68.4066 61.9034C67.3966 61.8134 60.4866 61.2034 60.4866 61.2034Z" fill="#A8754B"/>
<path d="M71.3867 43.2634C71.3867 43.2634 59.7467 44.9034 57.6567 62.6134C57.6567 62.6134 61.3667 66.6034 66.0967 65.3734L71.3867 43.2634Z" fill="#FFD686"/>
<path d="M76.4385 42.6533C76.4385 42.6533 87.7785 41.5333 91.7685 49.5233C95.7685 57.5133 84.1085 65.8333 88.1085 84.1433L62.9685 82.8133V66.6633C62.9685 66.6633 58.3885 59.9833 64.8785 52.8233C64.8785 52.8233 65.2685 41.9433 76.4385 42.6533Z" fill="#FFD686"/>
<path d="M39.0373 86.7334C39.0373 86.7334 30.8874 83.7134 28.6973 91.6234C26.5074 99.5234 17.4273 151.173 17.4273 151.173H24.7073L28.9873 130.643C28.9873 130.643 35.0273 123.913 36.8773 109.623L62.2773 106.593L39.0373 86.7334Z" fill="#B5845B"/>
<path d="M55.6995 105.633C55.6995 105.633 51.3795 105.513 43.7095 103.073C36.0395 100.623 30.5695 103.213 33.5895 111.853C36.6095 120.483 51.8695 160.483 51.8695 160.483L57.6495 158.753L52.6595 132.853C52.6595 132.853 51.4895 120.003 46.0695 112.473C46.0695 112.473 57.4695 113.043 61.3695 112.443C65.2495 111.853 55.6995 105.633 55.6995 105.633Z" fill="#A8754B"/>
<path d="M88.1079 84.1435C88.1079 84.1435 97.3279 95.7335 86.2379 107.113C86.2379 107.113 80.5279 113.763 55.3579 112.723C55.3579 112.723 48.7579 90.4435 34.7179 84.4535L63.7779 80.5635L88.1079 84.1435Z" fill="#0C2C40"/>
<path d="M75.8166 13.0634C75.8166 13.0634 72.8166 0.853406 83.2066 0.783406C90.8966 0.733406 93.1866 9.92338 83.7566 16.0734L75.8166 13.0634Z" fill="#190D08"/>
<path d="M84.1062 18.2935C84.1062 18.2935 85.9862 13.4935 80.6262 11.0635C75.2662 8.63346 73.5562 14.3835 73.5562 14.3835L84.1062 18.2935Z" fill="#FD6C75"/>
<path d="M63.7466 29.2133C63.7466 29.2133 56.0066 24.6333 64.3766 15.4333C69.6066 9.68335 78.7666 10.0033 83.8666 15.7033C88.9665 21.4033 84.1566 31.4533 84.1566 31.4533L80.6866 25.6833L77.6466 21.2033L73.2966 19.4633L69.8866 19.7033L66.9966 20.0733L64.6666 21.0533L63.7466 29.2133Z" fill="#27160C"/>
<path d="M70.0668 32.9142L78.7657 31.7969L80.5264 45.5049L71.8274 46.6222L70.0668 32.9142Z" fill="#B5845B"/>
<path d="M79.6758 35.8735C79.6758 35.8735 78.7358 40.8635 74.7258 41.8735C73.4758 42.1835 72.1158 41.8235 71.3558 40.7935C71.1458 40.5135 70.9958 40.1935 70.9458 39.8335C70.7558 38.3935 74.5558 35.8735 74.5558 35.8735H79.6758Z" fill="#A8754B"/>
<path d="M73.5482 39.4235L73.9982 39.3635C78.9882 38.7235 82.5182 34.1535 81.8782 29.1635L81.3682 25.2035C80.7282 20.2135 76.1582 16.6835 71.1682 17.3235L70.7182 17.3835C65.7282 18.0235 62.1982 22.5935 62.8382 27.5835L63.3482 31.5435C63.9882 36.5335 68.5582 40.0635 73.5482 39.4235Z" fill="#B5845B"/>
<path d="M80.898 28.1734C80.898 28.1734 74.638 26.1334 74.798 19.1034C74.798 19.1034 74.398 13.8634 79.878 18.7134C85.358 23.5634 80.898 28.1734 80.898 28.1734Z" fill="#27160C"/>
<path d="M79.5166 30.0934C79.7366 31.7734 81.2666 32.9634 82.9566 32.7434C84.6366 32.5234 85.8266 30.9934 85.6066 29.3134C85.3866 27.6334 83.8566 26.4434 82.1666 26.6634C80.4866 26.8734 79.2966 28.4134 79.5166 30.0934Z" fill="#B5845B"/>
<path d="M77.5066 24.6533L77.7866 26.8733C78.4266 30.0033 79.7466 29.0533 80.2266 27.7033L77.5066 24.6533Z" fill="#27160C"/>
<path d="M61.8756 23.5235C61.8756 23.5235 68.2656 28.3135 77.6356 21.2135C84.0956 16.3235 74.3256 14.5635 74.3256 14.5635L65.2156 16.4435L61.8756 23.5235Z" fill="#27160C"/>
<path d="M80.5156 45.4933C80.5156 45.4933 75.0456 55.2533 71.1656 52.2533C66.9756 49.0133 76.4356 42.6533 76.4356 42.6533L80.5156 45.4933Z" fill="#B5845B"/>
<path d="M78.0978 65.3735C78.0978 65.3735 74.7178 71.6035 72.4078 76.4935L47.7678 75.0735C47.7678 75.0735 42.8778 71.0735 39.0478 74.4535L42.8278 78.9935L73.6778 85.8235C74.8578 86.0835 76.0878 85.7435 76.9578 84.9235C79.6878 82.3435 85.6278 76.3335 88.5078 70.2035L78.0978 65.3735Z" fill="#B5845B"/>
<path d="M9.70572 55.7634H39.9857C40.9857 55.7634 41.8457 56.4634 42.0457 57.4334L47.7457 84.1834C48.0257 85.4934 47.0257 86.7334 45.6857 86.7334H14.8957C13.8857 86.7334 13.0157 86.0134 12.8257 85.0234L7.62572 58.2734C7.38572 56.9734 8.38572 55.7634 9.70572 55.7634Z" fill="#B2B2B2"/>
<path d="M7.96744 55.7634H38.2474C39.2474 55.7634 40.1074 56.4634 40.3074 57.4334L46.0074 84.1834C46.2874 85.4934 45.2874 86.7334 43.9474 86.7334H13.1574C12.1474 86.7334 11.2774 86.0134 11.0874 85.0234L5.88744 58.2734C5.64743 56.9734 6.63744 55.7634 7.96744 55.7634Z" fill="#D1D1D1"/>
<path d="M46.9473 84.4534H67.6373C68.2673 84.4534 68.7773 84.9634 68.7773 85.5934C68.7773 86.2234 68.2673 86.7334 67.6373 86.7334H46.5473L46.9473 84.4534Z" fill="#B2B2B2"/>
<path d="M26.7188 70.5534C26.7188 72.3734 25.2387 73.8534 23.4187 73.8534C21.5987 73.8534 20.1187 72.3734 20.1187 70.5534C20.1187 68.7334 21.5987 67.2534 23.4187 67.2534C25.2387 67.2534 26.7188 68.7234 26.7188 70.5534Z" fill="white"/>
<path d="M88.5078 45.6333C88.9178 45.8133 102.488 52.4833 89.1378 73.1533C89.1378 73.1533 80.6078 73.2933 75.6678 66.9433C75.6578 66.9433 77.2978 40.7133 88.5078 45.6333Z" fill="#FFD686"/>
<path d="M59.2178 157.623C59.0378 157.083 58.4478 156.883 58.0478 157.233C57.2678 157.923 55.8678 158.774 53.8078 158.564C51.6578 158.354 50.8578 157.083 50.5478 156.173C50.3878 155.693 49.9278 155.453 49.5178 155.653L36.4978 162.193C35.7078 162.593 35.0878 163.333 34.7878 164.253C34.4978 165.123 35.0778 166.054 35.8978 166.034L58.3878 165.413C59.2778 165.393 59.9478 164.523 59.8778 163.513L59.5078 158.553C59.4978 158.473 59.4878 158.394 59.4578 158.314L59.2178 157.623Z" fill="#FD6C75"/>
<path d="M26.3897 149.063C26.3497 148.493 25.8397 148.143 25.3697 148.383C24.4397 148.843 22.8697 149.293 20.9297 148.553C18.9197 147.783 18.4697 146.353 18.4097 145.393C18.3797 144.893 17.9997 144.533 17.5497 144.623L3.26968 147.533C2.39968 147.713 1.60969 148.263 1.06969 149.073C0.559687 149.833 0.879684 150.883 1.66969 151.073L23.5397 156.363C24.3997 156.573 25.2797 155.913 25.4697 154.913L26.4097 150.033C26.4297 149.953 26.4297 149.873 26.4297 149.783L26.3897 149.063Z" fill="#FD6C75"/>
</g>
<defs>
<clipPath id="clip0_232_6017">
<rect width="95" height="167" fill="white" transform="matrix(-1 0 0 1 95 0)"/>
</clipPath>
</defs>
</svg>
