<svg width="57" height="181" viewBox="0 0 57 181" fill="none" xmlns="http://www.w3.org/2000/svg">
<path d="M12.5708 180.117C16.1091 180.235 19.6474 180.184 23.1857 180.134C33.046 179.983 42.9232 179.832 52.7835 179.698C54.3095 179.681 56.305 179.363 56.4056 178.289C56.5062 177.317 54.9299 176.696 53.6219 176.394C48.893 175.338 43.9293 175.137 39.0159 174.952C31.7884 174.684 24.5776 174.449 17.3501 174.265C12.8392 174.147 8.2108 174.064 4.0017 175.137C1.7211 175.724 -1.6663 178.206 1.9894 179.43C2.9956 179.765 5.0415 179.614 6.1315 179.715C8.2611 179.882 10.4076 180.033 12.5708 180.117Z" fill="url(#paint0_linear_232_6048)"/>
<path opacity="0.22" d="M12.5747 180.117C16.113 180.234 19.6513 180.184 23.1896 180.134C33.0499 179.983 42.9271 179.832 52.7874 179.698C54.3134 179.681 56.3089 179.362 56.4095 178.289C56.5101 177.317 54.9338 176.696 53.6258 176.394C48.8969 175.338 43.9332 175.137 39.0198 174.952C31.7923 174.684 24.5815 174.449 17.354 174.265C12.8431 174.147 8.2147 174.063 4.0056 175.137C1.725 175.723 -1.6624 178.205 1.9933 179.429C2.9995 179.765 5.0454 179.614 6.1354 179.715C8.2651 179.882 10.4115 180.033 12.5747 180.117Z" fill="url(#paint1_linear_232_6048)"/>
<path d="M35.8941 91.1731C26.4698 91.4079 16.6095 89.6639 7.38637 91.5923C7.36957 117.685 9.39867 146.612 12.5346 172.521C15.4859 172.521 18.4205 172.504 21.3719 172.504C23.7531 158.418 23.0321 145.086 23.6022 130.966C24.6922 137.54 26.7381 141.296 28.9013 149.48C29.9075 153.253 31.0813 156.959 31.9198 160.782C32.3558 162.727 32.8253 164.673 33.3283 166.601C33.7811 168.261 34.5861 169.988 34.519 171.716C37.4033 172.068 40.3546 171.162 43.1719 170.642C43.1719 167.154 43.172 163.65 43.1552 160.162C43.1552 155.584 42.8365 151.173 42.2832 146.629C41.7633 142.37 40.9416 138.026 40.9416 133.717C40.6398 130.883 40.3212 128.065 40.1032 125.231C39.6001 118.842 39.533 112.42 39.1473 106.014C38.9629 102.828 38.6945 99.6416 38.2417 96.4722C38.0237 94.9294 37.789 93.3866 37.4704 91.8774C37.353 91.324 37.3865 90.5191 36.7325 90.4688C36.6152 90.452 36.2965 91.1563 35.8941 91.1731Z" fill="#1A1A1A"/>
<path d="M29.8377 33.8562C35.774 32.7159 37.1994 37.1933 37.2497 42.4756C37.3335 52.0173 37.6857 61.559 38.2894 71.0839C38.608 76.0141 38.9937 80.961 39.4297 85.8744C39.8992 91.0225 40.2346 92.0455 34.7007 92.4982C24.8237 93.3199 14.8124 93.3367 4.91859 92.5485C3.79499 92.4647 3.77829 76.9028 3.74479 75.5948C3.49329 67.3779 4.65029 59.0604 7.55129 51.1788C9.22829 46.6176 11.9617 42.2576 16.0869 39.0212C20.0277 35.9356 24.7231 34.8456 29.8377 33.8562Z" fill="#E8E8E8"/>
<path d="M44.952 29.7479C43.7949 29.2448 42.6715 28.7417 41.5815 28.1045C41.1287 27.8362 40.7932 28.4902 41.1789 28.792C42.1851 29.5299 43.1912 30.3012 44.2477 30.9552C45.0191 31.4415 45.7569 30.1 44.952 29.7479Z" fill="#666666"/>
<path d="M41.6815 18.3949C41.3294 18.8141 41.1113 19.3172 40.8765 19.8035C40.625 20.3234 40.2561 20.8768 40.1723 21.4469C40.1387 21.732 40.4238 22.1009 40.7257 21.8661C41.1784 21.5308 41.4635 21.0277 41.7821 20.5749C42.1343 20.0718 42.5367 19.5855 42.7547 19.0154C42.9895 18.4284 42.084 17.9254 41.6815 18.3949Z" fill="#666666"/>
<path d="M45.7887 23.0063C45.1012 23.0734 44.464 23.2746 43.81 23.4758C43.223 23.6603 42.6361 23.7945 42.1498 24.1801C41.9318 24.3646 42.066 24.7503 42.3176 24.8174C42.8374 24.9348 43.3572 24.8174 43.8771 24.7335C44.5646 24.6161 45.3025 24.5491 45.9565 24.2975C46.6105 24.0628 46.5936 22.9392 45.7887 23.0063Z" fill="#666666"/>
<path d="M31.2036 32.2129C32.2097 30.8043 32.8804 28.9261 33.0146 26.6791C33.2661 22.5371 33.0481 18.2441 31.3377 14.4375C29.3757 10.0775 24.3785 5.73429 19.1968 6.85783C13.1263 8.16583 13.5455 15.9971 13.9648 21.1955C14.3002 25.3207 15.7927 29.5131 18.8447 32.3135C23.4227 36.4723 28.5373 35.9189 31.2036 32.2129Z" fill="#E8DBCE"/>
<path d="M29.5072 20.7595C30.0941 23.5264 31.2009 26.1927 32.7436 28.574C33.0455 29.1273 33.8336 28.4063 34.0013 27.8026C35.2926 23.0401 35.9298 14.3369 35.3428 9.4235C34.7392 4.52688 32.6095 3.35304 28.1657 1.20658C24.9292 -0.36973 20.9381 -0.285885 17.7519 1.40781C14.5658 3.1015 12.2516 6.32119 11.6647 9.87627C11.6144 10.2117 11.5809 10.5806 11.7653 10.8657C12.0504 11.3184 12.7212 11.3184 13.2578 11.2513C16.3098 10.8657 19.4121 10.0943 22.4305 10.7483C25.4322 11.4023 28.3166 14.0853 27.8303 17.1373C29.0209 16.9193 30.3121 16.7013 31.4021 17.2212C32.5089 17.7243 33.1964 19.267 32.425 20.1893C31.5698 20.7427 30.4966 20.944 29.5072 20.7595Z" fill="#E0C68E"/>
<path d="M20.8681 171.465C18.4365 171.28 15.9715 171.381 13.5735 171.783C11.7121 173.175 9.683 174.315 7.5365 175.187C6.91601 175.439 6.2621 175.691 5.79251 176.177C5.33981 176.663 5.15531 177.485 5.57451 178.005C5.94341 178.457 6.6143 178.508 7.2012 178.508C11.6953 178.541 16.2062 178.156 20.6333 177.351C20.9016 177.3 21.1866 177.25 21.3711 177.049C21.522 176.898 21.5892 176.68 21.6563 176.479C22.109 174.785 21.8071 172.924 20.8681 171.465Z" fill="#537080"/>
<path d="M41.9987 170.073C39.5671 170.358 37.1858 170.945 34.9052 171.8C33.3624 173.527 31.5849 175.036 29.6396 176.311C29.0695 176.68 28.4826 177.049 28.1305 177.619C27.7783 178.189 27.7615 179.028 28.2813 179.464C28.7341 179.832 29.4049 179.749 29.975 179.648C34.4021 178.81 38.7454 177.552 42.9209 175.908C43.1725 175.808 43.4407 175.69 43.5917 175.472C43.709 175.288 43.7426 175.07 43.7594 174.852C43.86 173.108 43.206 171.33 41.9987 170.073Z" fill="#537080"/>
<path d="M15.4675 37.4447C14.4949 37.0087 13.4216 37.3274 12.7676 38.1323C11.9124 39.1887 12.1472 40.3626 12.2143 41.6203C12.2311 41.8383 12.2981 42.006 12.3987 42.1233C12.2814 42.1904 12.1807 42.2743 12.0969 42.4084C8.81012 47.3721 6.34513 52.7886 4.98682 58.6075C3.71233 64.0575 3.34332 66.8077 4.38302 72.0732C4.38302 72.9452 5.70782 75.8295 5.77492 76.7015C5.84192 77.7747 7.08292 80.6423 7.38482 79.5355C9.06172 73.3812 8.74302 64.2084 9.11192 57.8529C9.79952 53.56 10.5373 49.3174 12.3652 45.3766C12.7844 44.6723 13.2204 43.9847 13.6732 43.314C13.8409 43.096 13.8577 42.878 13.8074 42.6767C14.0589 42.5761 14.2433 42.3581 14.2601 42.0898C15.1489 41.6203 16.306 40.916 16.6078 39.9266C16.8929 38.9372 16.3898 37.864 15.4675 37.4447Z" fill="#303D5A"/>
<path d="M33.7315 25.9747C33.6812 25.3542 33.1447 24.9014 32.6584 24.5325C30.0759 22.5538 27.3257 20.793 24.4582 19.2502C23.9048 18.9651 23.234 19.1161 22.8651 19.6024C18.7063 25.1195 15.3525 30.4185 11.0092 35.7511C10.6068 36.2542 10.7242 37.0088 11.2776 37.3442C14.2122 39.1385 17.2977 41.1005 20.3497 42.593C20.9366 42.8781 21.5738 43.1631 22.2111 43.029C22.9154 42.8781 23.3849 42.2408 23.7874 41.6539C27.0406 36.9585 30.1933 32.1961 33.2453 27.3665C33.4968 26.9473 33.7651 26.4778 33.7315 25.9747Z" fill="#666666"/>
<path d="M13.3231 63.437C14.9329 60.4353 15.8217 57.1821 16.6601 53.9289C18.0017 48.6969 19.1923 43.4313 20.2488 38.1322C20.4165 37.2435 20.5842 36.3212 20.2823 35.4492C19.9637 34.5772 19.0079 33.7722 17.9514 33.8226C12.5852 42.9115 9.24809 52.8892 8.15809 63.1352C8.07429 63.8898 8.04079 64.7282 8.64449 65.2984C9.34879 65.9859 10.6567 65.9692 11.5287 65.4996C12.384 65.0469 12.8871 64.2419 13.3231 63.437Z" fill="#E8DBCE"/>
<path d="M12.3522 61.3243C14.6999 59.5803 17.2321 58.0711 19.8984 56.8302C20.0493 56.7631 20.2339 56.6793 20.4015 56.7463C20.5525 56.8134 20.6363 56.9643 20.7034 57.1153C21.2232 58.2891 21.6089 59.5133 21.8939 60.7542C22.0784 61.6262 22.1623 62.6659 21.5251 63.3031C21.1729 63.6385 20.6866 63.7894 20.2338 63.9571C18.0035 64.7956 16.2427 66.5899 13.9789 67.3445C12.302 67.9146 10.4741 67.8476 8.6966 67.7805C8.5289 67.7805 8.34449 67.7637 8.24389 67.6296C8.1768 67.5457 8.17669 67.4283 8.15989 67.3277C8.0928 66.4725 8.04259 65.567 8.42829 64.7788C8.62949 64.3763 8.91449 64.041 9.21639 63.7223C10.6418 62.1628 10.6753 62.582 12.3522 61.3243Z" fill="#E8DBCE"/>
<defs>
<linearGradient id="paint0_linear_232_6048" x1="0.442398" y1="176.314" x2="56.3614" y2="178.984" gradientUnits="userSpaceOnUse">
<stop stop-color="white"/>
<stop offset="1"/>
</linearGradient>
<linearGradient id="paint1_linear_232_6048" x1="0.446302" y1="176.314" x2="56.3653" y2="178.984" gradientUnits="userSpaceOnUse">
<stop/>
<stop offset="1"/>
</linearGradient>
</defs>
</svg>
