<svg width="20" height="20" viewBox="0 0 20 20" fill="none" xmlns="http://www.w3.org/2000/svg">
<path d="M15.625 16.7128H12.6719C12.4398 16.7128 12.25 16.52 12.25 16.2843V14.8559C12.25 14.6202 12.4398 14.4273 12.6719 14.4273H15.625C16.2473 14.4273 16.75 13.9167 16.75 13.2846V6.4282C16.75 5.79613 16.2473 5.28547 15.625 5.28547H12.6719C12.4398 5.28547 12.25 5.09263 12.25 4.85694V3.42852C12.25 3.19284 12.4398 3 12.6719 3H15.625C17.4883 3 19 4.53555 19 6.4282V13.2846C19 15.1773 17.4883 16.7128 15.625 16.7128ZM13.9727 9.53501L8.06641 3.53566C7.53906 3 6.625 3.37496 6.625 4.14273V7.57093H1.84375C1.37617 7.57093 1 7.95303 1 8.42798V11.8562C1 12.3311 1.37617 12.7132 1.84375 12.7132H6.625V16.1414C6.625 16.9092 7.53906 17.2842 8.06641 16.7485L13.9727 10.7492C14.2996 10.4135 14.2996 9.87068 13.9727 9.53501Z" fill="#6D6D6D"/>
</svg>
